ply
format ascii 1.0
comment Created by Open3D
element vertex 204
property double x
property double y
property double z
property double nx
property double ny
property double nz
property uchar red
property uchar green
property uchar blue
element face 282
property list uchar uint vertex_indices
end_header
0 0 0 0 -1 0 191 173 148
4.68 0 0 0 -1 0 191 173 148
4.68 0 6.42 0 -1 0 191 173 148
0 0 6.42 0 -1 0 191 173 148
0.9 0 0.28 0.0420197 0.0479025 -0.997968 242 235 224
0.9 0 0.16 0.0210419 0.0239878 0.999491 242 235 224
3.75 0 0.16 -0.0418758 0.0954768 0.99455 242 235 224
3.75 0 0.28 -0.0838177 0.0477761 -0.995335 242 235 224
0.9 2.5 0.28 0.0418758 -0.0954768 -0.99455 242 235 224
0.9 2.5 0.16 0.0838177 -0.0477761 0.995335 242 235 224
3.75 2.5 0.16 -0.0420197 -0.0479025 0.997968 242 235 224
3.75 2.5 0.28 -0.0210419 -0.0239878 -0.999491 242 235 224
0.82 0 1.68 0.0462293 0.0478935 -0.997782 242 235 224
0.82 0 1.56 0.0231531 0.0239867 0.999444 242 235 224
3.41 0 1.56 -0.046071 0.0954592 0.994367 242 235 224
3.41 0 1.68 -0.0921636 0.0477407 -0.994599 242 235 224
0.82 2.5 1.68 0.046071 -0.0954592 -0.994367 242 235 224
0.82 2.5 1.56 0.0921636 -0.0477407 0.994599 242 235 224
3.41 2.5 1.56 -0.0462293 -0.0478935 0.997782 242 235 224
3.41 2.5 1.68 -0.0231531 -0.0239867 -0.999444 242 235 224
0.82 0 2.93 0.0668124 0.0478377 -0.996618 242 235 224
0.82 0 2.81 0.0334911 0.0239796 0.999151 242 235 224
2.61 0 2.81 -0.0665842 0.0953486 0.993215 242 235 224
2.61 0 2.93 -0.132739 0.0475205 -0.990011 242 235 224
0.82 2.5 2.93 0.0665842 -0.0953486 -0.993215 242 235 224
0.82 2.5 2.81 0.132739 -0.0475205 0.990011 242 235 224
2.61 2.5 2.81 -0.0668124 -0.0478377 0.996618 242 235 224
2.61 2.5 2.93 -0.0334911 -0.0239796 -0.999151 242 235 224
0.71 0 4.08 0.0455276 0.0478951 -0.997814 242 235 224
0.71 0 3.96 0.0228012 0.0239869 0.999452 242 235 224
3.34 0 3.96 -0.0453718 0.0954623 0.994398 242 235 224
3.34 0 4.08 -0.0907735 0.0477469 -0.994726 242 235 224
0.71 2.5 4.08 0.0453718 -0.0954623 -0.994398 242 235 224
0.71 2.5 3.96 0.0907735 -0.0477469 0.994726 242 235 224
3.34 2.5 3.96 -0.0455276 -0.0478951 0.997814 242 235 224
3.34 2.5 4.08 -0.0228012 -0.0239869 -0.999452 242 235 224
0.21 0 4.95 0.0691187 0.0478301 -0.996461 242 235 224
0.21 0 4.83 0.0346513 0.0239787 0.999112 242 235 224
1.94 0 4.83 -0.0688827 0.0953337 0.993059 242 235 224
1.94 0 4.95 -0.137257 0.047491 -0.989396 242 235 224
0.21 2.5 4.95 0.0688827 -0.0953337 -0.993059 242 235 224
0.21 2.5 4.83 0.137257 -0.047491 0.989396 242 235 224
1.94 2.5 4.83 -0.0691187 -0.0478301 0.996461 242 235 224
1.94 2.5 4.95 -0.0346513 -0.0239787 -0.999112 242 235 224
0.69 0 5.3 0.0399221 0.0479066 -0.998054 242 235 224
0.69 0 5.18 0.0199902 0.0239883 0.999512 242 235 224
3.69 0 5.18 -0.0397854 0.095485 0.994635 242 235 224
3.69 0 5.3 -0.0796541 0.0477925 -0.995676 242 235 224
0.69 2.5 5.3 0.0397854 -0.095485 -0.994635 242 235 224
0.69 2.5 5.18 0.0796541 -0.0477925 0.995676 242 235 224
3.69 2.5 5.18 -0.0399221 -0.0479066 0.998054 242 235 224
3.69 2.5 5.3 -0.0199902 -0.0239883 -0.999512 242 235 224
1.05 0 6.31 0.0423161 0.0479019 -0.997955 242 235 224
1.05 0 6.19 0.0211906 0.0239877 0.999488 242 235 224
3.88 0 6.19 -0.0421712 0.0954757 0.994538 242 235 224
3.88 0 6.31 -0.0844058 0.0477737 -0.995286 242 235 224
1.05 2.5 6.31 0.0421712 -0.0954757 -0.994538 242 235 224
1.05 2.5 6.19 0.0844058 -0.0477737 0.995286 242 235 224
3.88 2.5 6.19 -0.0423161 -0.0479019 0.997955 242 235 224
3.88 2.5 6.31 -0.0211906 -0.0239877 -0.999488 242 235 224
2.97742 0 6.29994 0.170163 0.0475522 -0.984268 242 235 224
2.98258 0 6.18006 0.0213755 0.0239434 0.999485 242 235 224
3.91258 0 6.22006 -0.169588 0.0947835 0.980946 242 235 224
3.90742 0 6.33994 -0.207597 0.0464299 -0.977112 242 235 224
2.97742 2.5 6.29994 0.169588 -0.0947835 -0.980946 242 235 224
2.98258 2.5 6.18006 0.207597 -0.0464299 0.977112 242 235 224
3.91258 2.5 6.22006 -0.170163 -0.0475522 0.984268 242 235 224
3.90742 2.5 6.33994 -0.0213755 -0.0239434 -0.999485 242 235 224
0.24 0 2.89 0.99752 0.0478809 0.0515958 242 235 224
0.36 0 2.89 -0.999378 0.0239851 0.025846 242 235 224
0.36 0 5.21 -0.994107 0.0954343 -0.0514193 242 235 224
0.24 0 5.21 0.99356 0.0476909 -0.102782 242 235 224
0.24 2.5 2.89 0.994107 -0.0954343 0.0514193 242 235 224
0.36 2.5 2.89 -0.99356 -0.0476909 0.102782 242 235 224
0.36 2.5 5.21 -0.99752 -0.0478809 -0.0515958 242 235 224
0.24 2.5 5.21 0.999378 -0.0239851 -0.025846 242 235 224
0.32 0 1.14 0.995546 0.0477862 0.0812691 242 235 224
0.44 0 1.14 -0.998881 0.0239731 0.0407706 242 235 224
0.44 0 2.61 -0.992153 0.0952467 -0.0809921 242 235 224
0.32 0 2.61 0.985827 0.0473197 -0.160951 242 235 224
0.32 2.5 1.14 0.992153 -0.0952467 0.0809921 242 235 224
0.44 2.5 1.14 -0.985827 -0.0473197 0.160951 242 235 224
0.44 2.5 2.61 -0.995546 -0.0477862 -0.0812691 242 235 224
0.32 2.5 2.61 0.998881 -0.0239731 -0.0407706 242 235 224
0.62 0 4.58 0.99616 0.0478157 0.073337 242 235 224
0.74 0 4.58 -0.999036 0.0239769 0.0367743 242 235 224
0.74 0 6.21 -0.992761 0.0953051 -0.0730867 242 235 224
0.62 0 6.21 0.98822 0.0474345 -0.145505 242 235 224
0.62 2.5 4.58 0.992761 -0.0953051 0.0730867 242 235 224
0.74 2.5 4.58 -0.98822 -0.0474345 0.145505 242 235 224
0.74 2.5 6.21 -0.99616 -0.0478157 -0.073337 242 235 224
0.62 2.5 6.21 0.999036 -0.0239769 -0.0367743 242 235 224
0.71 0 1.28 0.998287 0.0479178 0.0335559 242 235 224
0.83 0 1.28 -0.999571 0.0239897 0.0167995 242 235 224
0.83 0 4.85 -0.994867 0.0955072 -0.0334409 242 235 224
0.71 0 4.85 0.996606 0.0478371 -0.0669987 242 235 224
0.71 2.5 1.28 0.994867 -0.0955072 0.0334409 242 235 224
0.83 2.5 1.28 -0.996606 -0.0478371 0.0669987 242 235 224
0.83 2.5 4.85 -0.998287 -0.0479178 -0.0335559 242 235 224
0.71 2.5 4.85 0.999571 -0.0239897 -0.0167995 242 235 224
0.82 0 0.17 0.996225 0.0478188 0.0724527 242 235 224
0.94 0 0.17 -0.999052 0.0239773 0.0363292 242 235 224
0.94 0 1.82 -0.992825 0.0953112 -0.0722055 242 235 224
0.82 0 1.82 0.988472 0.0474467 -0.143778 242 235 224
0.82 2.5 0.17 0.992825 -0.0953112 0.0722055 242 235 224
0.94 2.5 0.17 -0.988472 -0.0474467 0.143778 242 235 224
0.94 2.5 1.82 -0.996225 -0.0478188 -0.0724527 242 235 224
0.82 2.5 1.82 0.999052 -0.0239773 -0.0363292 242 235 224
1.1799 0 1.5934 -0.988883 0.047773 -0.140811 242 235 224
1.0601 0 1.5866 0.999612 0.0239715 0.0142129 242 235 224
1.1401 0 0.176601 0.985515 0.0952207 0.140331 242 235 224
1.2599 0 0.183399 -0.992662 0.0472687 0.111298 242 235 224
1.1799 2.5 1.5934 -0.985515 -0.0952207 -0.140331 242 235 224
1.0601 2.5 1.5866 0.992662 -0.0472687 -0.111298 242 235 224
1.1401 2.5 0.176601 0.988883 -0.047773 0.140811 242 235 224
1.2599 2.5 0.183399 -0.999612 -0.0239715 -0.0142129 242 235 224
2.49 0 4.02 0.989503 0.0474962 0.136483 242 235 224
2.61 0 4.02 -0.997344 0.0239363 0.0687824 242 235 224
2.61 0 4.89 -0.986172 0.0946725 -0.136024 242 235 224
2.49 0 4.89 0.962962 0.0462222 -0.265645 242 235 224
2.49 2.5 4.02 0.986172 -0.0946725 0.136024 242 235 224
2.61 2.5 4.02 -0.962962 -0.0462222 0.265645 242 235 224
2.61 2.5 4.89 -0.989503 -0.0474962 -0.136483 242 235 224
2.49 2.5 4.89 0.997344 -0.0239363 -0.0687824 242 235 224
2.55 0 1.66 0.994289 0.0477259 0.0954518 242 235 224
2.67 0 1.66 -0.998563 0.0239655 0.047931 242 235 224
2.67 0 2.91 -0.990909 0.0951273 -0.0951273 242 235 224
2.55 0 2.91 0.980973 0.0470867 -0.188347 242 235 224
2.55 2.5 1.66 0.990909 -0.0951273 0.0951273 242 235 224
2.67 2.5 1.66 -0.980973 -0.0470867 0.188347 242 235 224
2.67 2.5 2.91 -0.994289 -0.0477259 -0.0954518 242 235 224
2.55 2.5 2.91 0.998563 -0.0239655 -0.047931 242 235 224
3.31 0 0.51 0.998291 0.0479179 0.0334623 242 235 224
3.43 0 0.51 -0.999572 0.0239897 0.0167526 242 235 224
3.43 0 4.09 -0.99487 0.0955075 -0.0333476 242 235 224
3.31 0 4.09 0.996618 0.0478377 -0.0668124 242 235 224
3.31 2.5 0.51 0.99487 -0.0955075 0.0333476 242 235 224
3.43 2.5 0.51 -0.996618 -0.0478377 0.0668124 242 235 224
3.43 2.5 4.09 -0.998291 -0.0479179 -0.0334623 242 235 224
3.31 2.5 4.09 0.999572 -0.0239897 -0.0167526 242 235 224
3.47997 0 1.24182 -0.987521 0.0475975 -0.150121 242 235 224
3.36003 0 1.23818 0.999257 0.0239492 -0.0301973 242 235 224
3.39003 0 0.248183 0.984182 0.0948732 0.149613 242 235 224
3.50997 0 0.251817 -0.977499 0.0465993 0.205729 242 235 224
3.47997 2.5 1.24182 -0.984182 -0.0948732 -0.149613 242 235 224
3.36003 2.5 1.23818 0.977499 -0.0465993 -0.205729 242 235 224
3.39003 2.5 0.248183 0.987521 -0.0475975 0.150121 242 235 224
3.50997 2.5 0.251817 -0.999257 -0.0239492 0.0301973 242 235 224
3.81 0 2.39 0.998381 0.0479223 0.0306408 242 235 224
3.93 0 2.39 -0.999595 0.0239903 0.015339 242 235 224
3.93 0 6.3 -0.994959 0.0955161 -0.0305358 242 235 224
3.81 0 6.3 0.996978 0.0478549 -0.0611956 242 235 224
3.81 2.5 2.39 0.994959 -0.0955161 0.0305358 242 235 224
3.93 2.5 2.39 -0.996978 -0.0478549 0.0611956 242 235 224
3.93 2.5 6.3 -0.998381 -0.0479223 -0.0306408 242 235 224
3.81 2.5 6.3 0.999595 -0.0239903 -0.015339 242 235 224
3.89 0 0.27 0.997227 0.0478669 0.0569844 242 235 224
4.01 0 0.27 -0.999305 0.0239833 0.0285516 242 235 224
4.01 0 2.37 -0.993817 0.0954064 -0.0567896 242 235 224
3.89 0 2.37 0.992405 0.0476354 -0.113418 242 235 224
3.89 2.5 0.27 0.993817 -0.0954064 0.0567896 242 235 224
4.01 2.5 0.27 -0.992405 -0.0476354 0.113418 242 235 224
4.01 2.5 2.37 -0.997227 -0.0478669 -0.0569844 242 235 224
3.89 2.5 2.37 0.999305 -0.0239833 -0.0285516 242 235 224
3.97 0 5.99 -0.976727 0.0468829 -0.209299 242 235 224
3.85 0 5.99 0.994026 0.0238566 -0.106503 242 235 224
3.85 0 5.43 0.973523 0.0934582 0.208612 242 235 224
3.97 0 5.43 -0.918252 0.0440761 0.393536 242 235 224
3.97 2.5 5.99 -0.973523 -0.0934582 -0.208612 242 235 224
3.85 2.5 5.99 0.918252 -0.0440761 -0.393536 242 235 224
3.85 2.5 5.43 0.976727 -0.0468829 0.209299 242 235 224
3.97 2.5 5.43 -0.994026 -0.0238566 0.106503 242 235 224
3.89 0 1.99077 0.989129 0.0473886 0.139205 242 235 224
4.01 0 1.98923 -0.995705 0.0239225 0.08944 242 235 224
4.02 0 2.76923 -0.985814 0.0944596 -0.138739 242 235 224
3.9 0 2.77077 0.950937 0.0458295 -0.30597 242 235 224
3.89 2.5 1.99077 0.985814 -0.0944596 0.138739 242 235 224
4.01 2.5 1.98923 -0.950937 -0.0458295 0.30597 242 235 224
4.02 2.5 2.76923 -0.989129 -0.0473886 -0.139205 242 235 224
3.9 2.5 2.77077 0.995705 -0.0239225 -0.08944 242 235 224
3.82 0.001 0.35 0 1 0 204 242 204
3.49 0.001 4.19 0 -1 0 204 242 204
2.68 0.001 4.15 0 -1 0 204 242 204
2.47 0.001 5.02 0 -1 0 204 242 204
2.42 0.001 4.15 0 -1 0 204 242 204
0.9 0.001 4.15 0 -1 0 204 242 204
0.9 0.001 4.76 0 1 0 204 242 204
2.07 0.001 4.97 0 1 0 204 242 204
0.81 0.001 5.11 0 1 0 204 242 204
3.74 0.001 5.11 0 1 0 204 242 204
3.24 0.001 1.75 0 1 0 255 217 153
2.74 0.001 1.75 0 1 0 255 217 153
2.71 0.001 3.03 0 -1 0 255 217 153
0.9 0.001 3 0 -1 0 255 217 153
0.9 0.001 3.89 0 1 0 255 217 153
3.24 0.001 3.89 0 1 0 255 217 153
1.32 0.001 0.35 0 1 0 191 217 255
1.26 0.001 1.49 0 1 0 191 217 255
3.24 0.001 1.49 0 1 0 191 217 255
3.31 0.001 0.35 0 1 0 191 217 255
1.01 0.001 1.75 0 1 0 191 217 255
0.9 0.001 2.74 0 1 0 191 217 255
2.48 0.001 2.74 0 1 0 191 217 255
2.48 0.001 1.75 0 1 0 191 217 255
3 0 1 2
3 0 2 3
3 4 6 5
3 4 7 6
3 8 9 10
3 8 10 11
3 4 8 11
3 4 11 7
3 5 6 10
3 5 10 9
3 4 5 9
3 4 9 8
3 7 11 10
3 7 10 6
3 12 14 13
3 12 15 14
3 16 17 18
3 16 18 19
3 12 16 19
3 12 19 15
3 13 14 18
3 13 18 17
3 12 13 17
3 12 17 16
3 15 19 18
3 15 18 14
3 20 22 21
3 20 23 22
3 24 25 26
3 24 26 27
3 20 24 27
3 20 27 23
3 21 22 26
3 21 26 25
3 20 21 25
3 20 25 24
3 23 27 26
3 23 26 22
3 28 30 29
3 28 31 30
3 32 33 34
3 32 34 35
3 28 32 35
3 28 35 31
3 29 30 34
3 29 34 33
3 28 29 33
3 28 33 32
3 31 35 34
3 31 34 30
3 36 38 37
3 36 39 38
3 40 41 42
3 40 42 43
3 36 40 43
3 36 43 39
3 37 38 42
3 37 42 41
3 36 37 41
3 36 41 40
3 39 43 42
3 39 42 38
3 44 46 45
3 44 47 46
3 48 49 50
3 48 50 51
3 44 48 51
3 44 51 47
3 45 46 50
3 45 50 49
3 44 45 49
3 44 49 48
3 47 51 50
3 47 50 46
3 52 54 53
3 52 55 54
3 56 57 58
3 56 58 59
3 52 56 59
3 52 59 55
3 53 54 58
3 53 58 57
3 52 53 57
3 52 57 56
3 55 59 58
3 55 58 54
3 60 62 61
3 60 63 62
3 64 65 66
3 64 66 67
3 60 64 67
3 60 67 63
3 61 62 66
3 61 66 65
3 60 61 65
3 60 65 64
3 63 67 66
3 63 66 62
3 68 70 69
3 68 71 70
3 72 73 74
3 72 74 75
3 68 72 75
3 68 75 71
3 69 70 74
3 69 74 73
3 68 69 73
3 68 73 72
3 71 75 74
3 71 74 70
3 76 78 77
3 76 79 78
3 80 81 82
3 80 82 83
3 76 80 83
3 76 83 79
3 77 78 82
3 77 82 81
3 76 77 81
3 76 81 80
3 79 83 82
3 79 82 78
3 84 86 85
3 84 87 86
3 88 89 90
3 88 90 91
3 84 88 91
3 84 91 87
3 85 86 90
3 85 90 89
3 84 85 89
3 84 89 88
3 87 91 90
3 87 90 86
3 92 94 93
3 92 95 94
3 96 97 98
3 96 98 99
3 92 96 99
3 92 99 95
3 93 94 98
3 93 98 97
3 92 93 97
3 92 97 96
3 95 99 98
3 95 98 94
3 100 102 101
3 100 103 102
3 104 105 106
3 104 106 107
3 100 104 107
3 100 107 103
3 101 102 106
3 101 106 105
3 100 101 105
3 100 105 104
3 103 107 106
3 103 106 102
3 108 110 109
3 108 111 110
3 112 113 114
3 112 114 115
3 108 112 115
3 108 115 111
3 109 110 114
3 109 114 113
3 108 109 113
3 108 113 112
3 111 115 114
3 111 114 110
3 116 118 117
3 116 119 118
3 120 121 122
3 120 122 123
3 116 120 123
3 116 123 119
3 117 118 122
3 117 122 121
3 116 117 121
3 116 121 120
3 119 123 122
3 119 122 118
3 124 126 125
3 124 127 126
3 128 129 130
3 128 130 131
3 124 128 131
3 124 131 127
3 125 126 130
3 125 130 129
3 124 125 129
3 124 129 128
3 127 131 130
3 127 130 126
3 132 134 133
3 132 135 134
3 136 137 138
3 136 138 139
3 132 136 139
3 132 139 135
3 133 134 138
3 133 138 137
3 132 133 137
3 132 137 136
3 135 139 138
3 135 138 134
3 140 142 141
3 140 143 142
3 144 145 146
3 144 146 147
3 140 144 147
3 140 147 143
3 141 142 146
3 141 146 145
3 140 141 145
3 140 145 144
3 143 147 146
3 143 146 142
3 148 150 149
3 148 151 150
3 152 153 154
3 152 154 155
3 148 152 155
3 148 155 151
3 149 150 154
3 149 154 153
3 148 149 153
3 148 153 152
3 151 155 154
3 151 154 150
3 156 158 157
3 156 159 158
3 160 161 162
3 160 162 163
3 156 160 163
3 156 163 159
3 157 158 162
3 157 162 161
3 156 157 161
3 156 161 160
3 159 163 162
3 159 162 158
3 164 166 165
3 164 167 166
3 168 169 170
3 168 170 171
3 164 168 171
3 164 171 167
3 165 166 170
3 165 170 169
3 164 165 169
3 164 169 168
3 167 171 170
3 167 170 166
3 172 174 173
3 172 175 174
3 176 177 178
3 176 178 179
3 172 176 179
3 172 179 175
3 173 174 178
3 173 178 177
3 172 173 177
3 172 177 176
3 175 179 178
3 175 178 174
3 180 181 182
3 180 182 183
3 180 183 184
3 180 184 185
3 180 185 186
3 180 186 187
3 180 187 188
3 180 188 189
3 190 191 192
3 190 192 193
3 190 193 194
3 190 194 195
3 196 197 198
3 196 198 199
3 200 201 202
3 200 202 203
