ply
format ascii 1.0
comment Created by Open3D
element vertex 116
property double x
property double y
property double z
property double nx
property double ny
property double nz
property uchar red
property uchar green
property uchar blue
element face 150
property list uchar uint vertex_indices
end_header
0 0 0 0 -1 0 191 173 148
4.68 0 0 0 -1 0 191 173 148
4.68 0 6.42 0 -1 0 191 173 148
0 0 6.42 0 -1 0 191 173 148
0.78 0 0.17 0.998447 0.0479255 0.0283919 242 235 224
0.9 0 0.17 -0.999611 0.0239907 0.0142125 242 235 224
0.9 0 4.39 -0.995025 0.0955224 -0.0282946 242 235 224
0.78 0 4.39 0.997242 0.0478676 -0.0567152 242 235 224
0.78 2.5 0.17 0.995025 -0.0955224 0.0282946 242 235 224
0.9 2.5 0.17 -0.997242 -0.0478676 0.0567152 242 235 224
0.9 2.5 4.39 -0.998447 -0.0479255 -0.0283919 242 235 224
0.78 2.5 4.39 0.999611 -0.0239907 -0.0142125 242 235 224
3.81 0 2.39 0.998381 0.0479223 0.0306408 242 235 224
3.93 0 2.39 -0.999595 0.0239903 0.015339 242 235 224
3.93 0 6.3 -0.994959 0.0955161 -0.0305358 242 235 224
3.81 0 6.3 0.996978 0.0478549 -0.0611956 242 235 224
3.81 2.5 2.39 0.994959 -0.0955161 0.0305358 242 235 224
3.93 2.5 2.39 -0.996978 -0.0478549 0.0611956 242 235 224
3.93 2.5 6.3 -0.998381 -0.0479223 -0.0306408 242 235 224
3.81 2.5 6.3 0.999595 -0.0239903 -0.015339 242 235 224
0.69 0 5.33 0.0399221 0.0479066 -0.998054 242 235 224
0.69 0 5.21 0.0199902 0.0239883 0.999512 242 235 224
3.69 0 5.21 -0.0397854 0.095485 0.994635 242 235 224
3.69 0 5.33 -0.0796541 0.0477925 -0.995676 242 235 224
0.69 2.5 5.33 0.0397854 -0.095485 -0.994635 242 235 224
0.69 2.5 5.21 0.0796541 -0.0477925 0.995676 242 235 224
3.69 2.5 5.21 -0.0399221 -0.0479066 0.998054 242 235 224
3.69 2.5 5.33 -0.0199902 -0.0239883 -0.999512 242 235 224
1.05 0 6.31 0.041873 0.0479027 -0.997974 242 235 224
1.05 0 6.19 0.0209684 0.0239878 0.999492 242 235 224
3.91 0 6.19 -0.0417296 0.0954774 0.994557 242 235 224
3.91 0 6.31 -0.0835267 0.0477773 -0.99536 242 235 224
1.05 2.5 6.31 0.0417296 -0.0954774 -0.994557 242 235 224
1.05 2.5 6.19 0.0835267 -0.0477773 0.99536 242 235 224
3.91 2.5 6.19 -0.041873 -0.0479027 0.997974 242 235 224
3.91 2.5 6.31 -0.0209684 -0.0239878 -0.999492 242 235 224
0.9 0 0.28 0.0420197 0.0479025 -0.997968 242 235 224
0.9 0 0.16 0.0210419 0.0239878 0.999491 242 235 224
3.75 0 0.16 -0.0418758 0.0954768 0.99455 242 235 224
3.75 0 0.28 -0.0838177 0.0477761 -0.995335 242 235 224
0.9 2.5 0.28 0.0418758 -0.0954768 -0.99455 242 235 224
0.9 2.5 0.16 0.0838177 -0.0477761 0.995335 242 235 224
3.75 2.5 0.16 -0.0420197 -0.0479025 0.997968 242 235 224
3.75 2.5 0.28 -0.0210419 -0.0239878 -0.999491 242 235 224
0.71 0 4.08 0.0455276 0.0478951 -0.997814 242 235 224
0.71 0 3.96 0.0228012 0.0239869 0.999452 242 235 224
3.34 0 3.96 -0.0453718 0.0954623 0.994398 242 235 224
3.34 0 4.08 -0.0907735 0.0477469 -0.994726 242 235 224
0.71 2.5 4.08 0.0453718 -0.0954623 -0.994398 242 235 224
0.71 2.5 3.96 0.0907735 -0.0477469 0.994726 242 235 224
3.34 2.5 3.96 -0.0455276 -0.0478951 0.997814 242 235 224
3.34 2.5 4.08 -0.0228012 -0.0239869 -0.999452 242 235 224
0.82 0 1.68 0.0462293 0.0478935 -0.997782 242 235 224
0.82 0 1.56 0.0231531 0.0239867 0.999444 242 235 224
3.41 0 1.56 -0.046071 0.0954592 0.994367 242 235 224
3.41 0 1.68 -0.0921636 0.0477407 -0.994599 242 235 224
0.82 2.5 1.68 0.046071 -0.0954592 -0.994367 242 235 224
0.82 2.5 1.56 0.0921636 -0.0477407 0.994599 242 235 224
3.41 2.5 1.56 -0.0462293 -0.0478935 0.997782 242 235 224
3.41 2.5 1.68 -0.0231531 -0.0239867 -0.999444 242 235 224
3.89 0 0.27 0.997704 0.0478898 0.0478898 242 235 224
4.01 0 0.27 -0.999424 0.0239862 0.0239862 242 235 224
4.01 0 2.77 -0.994289 0.0954518 -0.0477259 242 235 224
3.89 0 2.77 0.994289 0.0477259 -0.0954518 242 235 224
3.89 2.5 0.27 0.994289 -0.0954518 0.0477259 242 235 224
4.01 2.5 0.27 -0.994289 -0.0477259 0.0954518 242 235 224
4.01 2.5 2.77 -0.997704 -0.0478898 -0.0478898 242 235 224
3.89 2.5 2.77 0.999424 -0.0239862 -0.0239862 242 235 224
0.24 0 2.89 0.99752 0.0478809 0.0515958 242 235 224
0.36 0 2.89 -0.999378 0.0239851 0.025846 242 235 224
0.36 0 5.21 -0.994107 0.0954343 -0.0514193 242 235 224
0.24 0 5.21 0.99356 0.0476909 -0.102782 242 235 224
0.24 2.5 2.89 0.994107 -0.0954343 0.0514193 242 235 224
0.36 2.5 2.89 -0.99356 -0.0476909 0.102782 242 235 224
0.36 2.5 5.21 -0.99752 -0.0478809 -0.0515958 242 235 224
0.24 2.5 5.21 0.999378 -0.0239851 -0.025846 242 235 224
0.82 0 2.93 0.0668124 0.0478377 -0.996618 242 235 224
0.82 0 2.81 0.0334911 0.0239796 0.999151 242 235 224
2.61 0 2.81 -0.0665842 0.0953486 0.993215 242 235 224
2.61 0 2.93 -0.132739 0.0475205 -0.990011 242 235 224
0.82 2.5 2.93 0.0665842 -0.0953486 -0.993215 242 235 224
0.82 2.5 2.81 0.132739 -0.0475205 0.990011 242 235 224
2.61 2.5 2.81 -0.0668124 -0.0478377 0.996618 242 235 224
2.61 2.5 2.93 -0.0334911 -0.0239796 -0.999151 242 235 224
2.55 0 1.66 0.994289 0.0477259 0.0954518 242 235 224
2.67 0 1.66 -0.998563 0.0239655 0.047931 242 235 224
2.67 0 2.91 -0.990909 0.0951273 -0.0951273 242 235 224
2.55 0 2.91 0.980973 0.0470867 -0.188347 242 235 224
2.55 2.5 1.66 0.990909 -0.0951273 0.0951273 242 235 224
2.67 2.5 1.66 -0.980973 -0.0470867 0.188347 242 235 224
2.67 2.5 2.91 -0.994289 -0.0477259 -0.0954518 242 235 224
2.55 2.5 2.91 0.998563 -0.0239655 -0.047931 242 235 224
3.82 0.001 0.35 0 1 0 204 242 204
3.49 0.001 4.19 0 -1 0 204 242 204
2.68 0.001 4.15 0 -1 0 204 242 204
2.47 0.001 5.02 0 -1 0 204 242 204
2.42 0.001 4.15 0 -1 0 204 242 204
0.97 0.001 4.15 0 -1 0 204 242 204
0.82 0.001 4.8 0 1 0 204 242 204
2.07 0.001 5.01 0 1 0 204 242 204
0.82 0.001 5.14 0 1 0 204 242 204
3.74 0.001 5.14 0 1 0 204 242 204
3.24 0.001 1.75 0 1 0 255 217 153
2.74 0.001 1.75 0 1 0 255 217 153
2.71 0.001 3.03 0 -1 0 255 217 153
0.97 0.001 3 0 -1 0 255 217 153
0.97 0.001 3.89 0 1 0 255 217 153
3.24 0.001 3.89 0 1 0 255 217 153
1.32 0.001 0.35 0 1 0 191 217 255
1.26 0.001 1.49 0 1 0 191 217 255
3.24 0.001 1.49 0 1 0 191 217 255
3.31 0.001 0.35 0 1 0 191 217 255
0.97 0.001 1.75 0 1 0 191 217 255
0.97 0.001 2.74 0 1 0 191 217 255
2.48 0.001 2.74 0 1 0 191 217 255
2.48 0.001 1.75 0 1 0 191 217 255
3 0 1 2
3 0 2 3
3 4 6 5
3 4 7 6
3 8 9 10
3 8 10 11
3 4 8 11
3 4 11 7
3 5 6 10
3 5 10 9
3 4 5 9
3 4 9 8
3 7 11 10
3 7 10 6
3 12 14 13
3 12 15 14
3 16 17 18
3 16 18 19
3 12 16 19
3 12 19 15
3 13 14 18
3 13 18 17
3 12 13 17
3 12 17 16
3 15 19 18
3 15 18 14
3 20 22 21
3 20 23 22
3 24 25 26
3 24 26 27
3 20 24 27
3 20 27 23
3 21 22 26
3 21 26 25
3 20 21 25
3 20 25 24
3 23 27 26
3 23 26 22
3 28 30 29
3 28 31 30
3 32 33 34
3 32 34 35
3 28 32 35
3 28 35 31
3 29 30 34
3 29 34 33
3 28 29 33
3 28 33 32
3 31 35 34
3 31 34 30
3 36 38 37
3 36 39 38
3 40 41 42
3 40 42 43
3 36 40 43
3 36 43 39
3 37 38 42
3 37 42 41
3 36 37 41
3 36 41 40
3 39 43 42
3 39 42 38
3 44 46 45
3 44 47 46
3 48 49 50
3 48 50 51
3 44 48 51
3 44 51 47
3 45 46 50
3 45 50 49
3 44 45 49
3 44 49 48
3 47 51 50
3 47 50 46
3 52 54 53
3 52 55 54
3 56 57 58
3 56 58 59
3 52 56 59
3 52 59 55
3 53 54 58
3 53 58 57
3 52 53 57
3 52 57 56
3 55 59 58
3 55 58 54
3 60 62 61
3 60 63 62
3 64 65 66
3 64 66 67
3 60 64 67
3 60 67 63
3 61 62 66
3 61 66 65
3 60 61 65
3 60 65 64
3 63 67 66
3 63 66 62
3 68 70 69
3 68 71 70
3 72 73 74
3 72 74 75
3 68 72 75
3 68 75 71
3 69 70 74
3 69 74 73
3 68 69 73
3 68 73 72
3 71 75 74
3 71 74 70
3 76 78 77
3 76 79 78
3 80 81 82
3 80 82 83
3 76 80 83
3 76 83 79
3 77 78 82
3 77 82 81
3 76 77 81
3 76 81 80
3 79 83 82
3 79 82 78
3 84 86 85
3 84 87 86
3 88 89 90
3 88 90 91
3 84 88 91
3 84 91 87
3 85 86 90
3 85 90 89
3 84 85 89
3 84 89 88
3 87 91 90
3 87 90 86
3 92 93 94
3 92 94 95
3 92 95 96
3 92 96 97
3 92 97 98
3 92 98 99
3 92 99 100
3 92 100 101
3 102 103 104
3 102 104 105
3 102 105 106
3 102 106 107
3 108 109 110
3 108 110 111
3 112 113 114
3 112 114 115
